<svg width="28" height="40" viewBox="0 0 28 40" fill="none" xmlns="http://www.w3.org/2000/svg">
<g clip-path="url(#clip0)">
<path d="M13.75 27.5C17.8922 27.5 21.25 24.1422 21.25 20V7.5C21.25 3.35781 17.8922 0 13.75 0C9.60781 0 6.25 3.35781 6.25 7.5V20C6.25 24.1422 9.60781 27.5 13.75 27.5ZM26.25 15H25C24.3094 15 23.75 15.5594 23.75 16.25V20C23.75 25.8438 18.7117 30.5328 12.7508 29.9516C7.55547 29.4445 3.75 24.7742 3.75 19.5547V16.25C3.75 15.5594 3.19062 15 2.5 15H1.25C0.559375 15 0 15.5594 0 16.25V19.3875C0 26.3906 4.99766 32.6336 11.875 33.582V36.25H7.5C6.80937 36.25 6.25 36.8094 6.25 37.5V38.75C6.25 39.4406 6.80937 40 7.5 40H20C20.6906 40 21.25 39.4406 21.25 38.75V37.5C21.25 36.8094 20.6906 36.25 20 36.25H15.625V33.6117C22.3211 32.693 27.5 26.9453 27.5 20V16.25C27.5 15.5594 26.9406 15 26.25 15Z" fill="#EF4924"/>
</g>
<defs>
<clipPath id="clip0">
<rect width="27.5" height="40" fill="white"/>
</clipPath>
</defs>
</svg>
