<svg width="29" height="29" viewBox="0 0 29 29" fill="none" xmlns="http://www.w3.org/2000/svg">
<path fill-rule="evenodd" clip-rule="evenodd" d="M12.1444 0.0592957C8.7326 0.0596179 5.41419 1.85665 3.58594 5.07082C0.859904 9.86323 2.47768 15.9913 7.19927 18.7582C8.75387 19.6691 10.451 20.1022 12.1259 20.1022C15.5374 20.1022 18.8558 18.3048 20.684 15.0906C23.4101 10.2982 21.7923 4.17021 17.0707 1.40361C15.5161 0.492362 13.8193 0.0592957 12.1444 0.0592957ZM12.1447 0.0592957V0.70374C13.7555 0.70374 15.3494 1.13874 16.7532 1.9617C21.164 4.54624 22.6809 10.2915 20.1342 14.7684C18.4891 17.661 15.4202 19.4577 12.1259 19.4577C10.5145 19.4577 8.92086 19.0227 7.51673 18.2001C3.10594 15.6152 1.58911 9.87 4.13578 5.39304C5.78117 2.50077 8.84975 0.704062 12.1443 0.70374L12.1447 0.0592957Z" fill="#A7A7A7"/>
<path fill-rule="evenodd" clip-rule="evenodd" d="M11.6368 2.87778C9.66126 2.87778 7.65872 3.3885 5.82476 4.46311C0.254598 7.72722 -1.65366 14.9566 1.56222 20.6103C3.71936 24.4025 7.63365 26.5224 11.6587 26.5224C13.634 26.5224 15.6368 26.0114 17.4705 24.9368C23.0406 21.6727 24.9492 14.4436 21.7333 8.78991C19.5762 4.99735 15.6619 2.87745 11.6368 2.87778ZM11.6371 2.87778V4.81111H11.6375C15.1121 4.81111 18.3486 6.7061 20.0838 9.75658C22.7692 14.4778 21.1698 20.5368 16.5181 23.2625C15.0371 24.1306 13.3568 24.5891 11.6587 24.5891C8.18349 24.5891 4.94698 22.6941 3.21174 19.6436C0.526027 14.9221 2.12571 8.86338 6.77714 6.1377C8.25809 5.26963 9.93841 4.81111 11.6368 4.81111L11.6371 2.87778Z" fill="#A7A7A7"/>
<path fill-rule="evenodd" clip-rule="evenodd" d="M16.5825 4.11478C9.8123 4.11478 4.32373 9.68568 4.32373 16.5574C4.32373 23.4294 9.8123 29 16.5825 29C23.3529 29 28.8412 23.4294 28.8412 16.5574C28.8412 9.68568 23.3529 4.11478 16.5825 4.11478ZM16.5825 7.337C21.5917 7.337 25.6666 11.4734 25.6666 16.5574C25.6666 21.6414 21.5917 25.7778 16.5825 25.7778C11.5736 25.7778 7.49833 21.6414 7.49833 16.5574C7.49833 11.4734 11.5736 7.337 16.5825 7.337Z" fill="#F66620"/>
</svg>
