<svg width="20" height="17" viewBox="0 0 20 17" fill="none" xmlns="http://www.w3.org/2000/svg">
<path d="M5.75 16.9219C6.06543 16.9219 6.28955 16.7476 6.66309 16.4238L9.58496 13.8589H15.4785C17.728 13.8589 19.0063 12.5557 19.0063 10.3394V3.66553C19.0063 1.44092 17.728 0.137695 15.4785 0.137695H4.51318C2.26367 0.137695 0.985352 1.43262 0.985352 3.66553V10.3394C0.985352 12.564 2.26367 13.8589 4.51318 13.8589H5.04443V16.1001C5.04443 16.5981 5.30176 16.9219 5.75 16.9219ZM6.00732 15.7598V13.3193C6.00732 12.9707 5.86621 12.8379 5.51758 12.8379H4.52148C2.87793 12.8379 2.01465 11.9248 2.01465 10.3311V3.67383C2.01465 2.07178 2.87793 1.16699 4.52148 1.16699H15.4702C17.0972 1.16699 17.9771 2.07178 17.9771 3.67383V10.3311C17.9771 11.9248 17.0972 12.8379 15.4702 12.8379H9.57666C9.20312 12.8379 9.01221 12.896 8.73828 13.1699L6.00732 15.7598Z" fill="#7A7A7A"/>
</svg>
