<svg width="40" height="40" viewBox="0 0 40 40" fill="none" xmlns="http://www.w3.org/2000/svg">
<g clip-path="url(#clip0)">
<path d="M9.11328 17.1365C9.22763 17.2559 9.36497 17.3509 9.51703 17.4159C9.66909 17.4808 9.83271 17.5143 9.99805 17.5143C10.1634 17.5143 10.327 17.4808 10.4791 17.4159C10.6311 17.3509 10.7685 17.2559 10.8828 17.1365L18.4414 9.33727C20.6406 7.07165 20.5117 3.31383 18.0578 1.22165C15.918 -0.60179 12.7344 -0.273665 10.7703 1.7529L10 2.54508L9.23047 1.7529C7.26953 -0.273665 4.08203 -0.60179 1.94219 1.22165C-0.511719 3.31383 -0.635937 7.0693 1.55156 9.33727L9.11328 17.1365ZM20.357 24.9873H16.607L16.0539 23.8748C15.901 23.4666 15.6271 23.1149 15.2688 22.8667C14.9106 22.6184 14.4851 22.4855 14.0492 22.4857H8.44688C8.01103 22.4855 7.58552 22.6184 7.22727 22.8667C6.86901 23.1149 6.59511 23.4666 6.44219 23.8748L5.89531 24.9873H2.14531C1.86356 24.9872 1.58454 25.0426 1.32422 25.1504C1.06389 25.2581 0.82735 25.4162 0.628119 25.6154C0.428888 25.8146 0.270869 26.0512 0.163093 26.3115C0.0553176 26.5718 -0.000102519 26.8508 1.42421e-07 27.1326L1.42421e-07 37.8552C-0.000102471 38.1368 0.0552457 38.4155 0.162884 38.6757C0.270523 38.9358 0.428344 39.1722 0.627338 39.3713C0.826331 39.5705 1.0626 39.7285 1.32265 39.8363C1.5827 39.9441 1.86145 39.9997 2.14297 39.9998H20.357C20.9255 39.9994 21.4706 39.7732 21.8724 39.3711C22.2743 38.969 22.5 38.4237 22.5 37.8552V27.1326C22.5002 26.564 22.2746 26.0185 21.8727 25.6162C21.4708 25.2139 20.9257 24.9877 20.357 24.9873ZM11.25 36.5623C10.4465 36.5623 9.66107 36.324 8.993 35.8776C8.32492 35.4312 7.80422 34.7967 7.49674 34.0544C7.18926 33.3121 7.10881 32.4953 7.26556 31.7072C7.42231 30.9192 7.80923 30.1953 8.37738 29.6271C8.94553 29.059 9.6694 28.6721 10.4574 28.5153C11.2455 28.3586 12.0623 28.439 12.8047 28.7465C13.547 29.054 14.1815 29.5747 14.6278 30.2428C15.0742 30.9108 15.3125 31.6963 15.3125 32.4998C15.3125 33.5772 14.8845 34.6105 14.1226 35.3724C13.3608 36.1343 12.3274 36.5623 11.25 36.5623ZM39.0156 27.5076H34.2828L36.0297 23.5427C36.1937 23.0232 35.7227 22.5107 35.0781 22.5107H29.1727C28.6805 22.5107 28.2617 22.8154 28.1961 23.2216L26.8836 31.5756C26.8055 32.0677 27.2648 32.5045 27.8602 32.5045H32.7281L30.8375 38.9888C30.6898 39.5084 31.1656 39.9966 31.793 39.9966C31.9575 40.001 32.1208 39.966 32.2691 39.8947C32.4175 39.8234 32.5467 39.7177 32.6461 39.5865L39.8648 28.7341C40.2461 28.1943 39.7742 27.5076 39.0156 27.5076ZM37.35 0.0255536L25.743 1.80993C24.5992 1.98571 23.75 3.0404 23.75 4.28337V12.6248C23.3386 12.5402 22.92 12.4958 22.5 12.492C19.7383 12.492 17.5 14.1701 17.5 16.242C17.5 18.3138 19.7383 19.992 22.5 19.992C25.25 19.992 27.4789 18.3263 27.5 16.2685V7.78571L36.25 6.4404V10.1263C35.8386 10.0418 35.42 9.99733 35 9.99352C32.2383 9.99352 30 11.6716 30 13.7435C30 15.8154 32.2383 17.4935 35 17.4935C37.75 17.4935 39.9789 15.8279 40 13.7701V2.49977C40 0.977897 38.75 -0.18929 37.35 0.0255536Z" fill="#EF4924"/>
</g>
<defs>
<clipPath id="clip0">
<rect width="40" height="40" fill="white"/>
</clipPath>
</defs>
</svg>
