<svg width="35" height="40" viewBox="0 0 35 40" fill="none" xmlns="http://www.w3.org/2000/svg">
<path d="M34.7168 28.08C34.7168 28.64 34.2368 28.88 33.6768 29.12C31.4368 30.08 29.0368 30.96 26.4768 30.96C22.8768 30.96 21.1968 28.72 16.8768 28.72C13.7568 28.72 10.4768 29.84 7.83685 31.04C7.67685 31.12 7.51685 31.12 7.35685 31.2V37.28C7.35685 38.9523 6.09732 40 4.71685 40C3.19685 40 1.99685 38.8 1.99685 37.28V8C0.956847 7.2 0.236847 5.92 0.236847 4.48C0.236847 2 2.23685 0 4.71685 0C7.19685 0 9.19685 2 9.19685 4.48C9.19685 5.92 8.55685 7.2 7.43685 8V10.48C7.75903 10.3727 12.0281 8.24 16.3968 8.24C21.4961 8.24 24.0278 10.4 26.3168 10.4C29.3568 10.4 32.7168 8.24 33.5168 8.24C34.1568 8.24 34.7168 8.72 34.7168 9.28V28.08Z" fill="#EF4924"/>
</svg>
