<svg width="14" height="18" viewBox="0 0 14 18" fill="none" xmlns="http://www.w3.org/2000/svg">
<path d="M2.55908 17.8638H11.4326C13.043 17.8638 13.8564 17.0337 13.8564 15.4233V7.62891C13.8564 6.73242 13.7402 6.34229 13.1924 5.77783L8.31152 0.847168C7.78027 0.307617 7.34863 0.174805 6.54346 0.174805H2.55908C0.965332 0.174805 0.135254 1.00488 0.135254 2.62354V15.4233C0.135254 17.042 0.957031 17.8638 2.55908 17.8638ZM2.60889 16.8428C1.6543 16.8428 1.16455 16.3364 1.16455 15.3984V2.64844C1.16455 1.72705 1.6543 1.2041 2.61719 1.2041H6.49365V6.20117C6.49365 7.14746 6.9751 7.5957 7.89648 7.5957H12.8354V15.3984C12.8354 16.3364 12.3374 16.8428 11.3828 16.8428H2.60889ZM8.00439 6.62451C7.62256 6.62451 7.46484 6.4751 7.46484 6.08496V1.41162L12.6279 6.62451H8.00439Z" fill="#7A7A7A"/>
</svg>
