<svg width="30" height="40" viewBox="0 0 30 40" fill="none" xmlns="http://www.w3.org/2000/svg">
<path d="M17.5 10.625V0H1.875C0.835938 0 0 0.835938 0 1.875V38.125C0 39.1641 0.835938 40 1.875 40H28.125C29.1641 40 30 39.1641 30 38.125V12.5H19.375C18.3438 12.5 17.5 11.6562 17.5 10.625ZM22.5 29.0625C22.5 29.5781 22.0781 30 21.5625 30H8.4375C7.92188 30 7.5 29.5781 7.5 29.0625V28.4375C7.5 27.9219 7.92188 27.5 8.4375 27.5H21.5625C22.0781 27.5 22.5 27.9219 22.5 28.4375V29.0625ZM22.5 24.0625C22.5 24.5781 22.0781 25 21.5625 25H8.4375C7.92188 25 7.5 24.5781 7.5 24.0625V23.4375C7.5 22.9219 7.92188 22.5 8.4375 22.5H21.5625C22.0781 22.5 22.5 22.9219 22.5 23.4375V24.0625ZM22.5 18.4375V19.0625C22.5 19.5781 22.0781 20 21.5625 20H8.4375C7.92188 20 7.5 19.5781 7.5 19.0625V18.4375C7.5 17.9219 7.92188 17.5 8.4375 17.5H21.5625C22.0781 17.5 22.5 17.9219 22.5 18.4375ZM30 9.52344V10H20V0H20.4766C20.9766 0 21.4531 0.195312 21.8047 0.546875L29.4531 8.20312C29.8047 8.55469 30 9.03125 30 9.52344Z" fill="#EF4924"/>
</svg>
