<svg width="35" height="40" viewBox="0 0 35 40" fill="none" xmlns="http://www.w3.org/2000/svg">
<path d="M35 28.125V1.875C35 0.835938 34.1641 0 33.125 0H7.5C3.35938 0 0 3.35938 0 7.5V32.5C0 36.6406 3.35938 40 7.5 40H33.125C34.1641 40 35 39.1641 35 38.125V36.875C35 36.2891 34.7266 35.7578 34.3047 35.4141C33.9766 34.2109 33.9766 30.7812 34.3047 29.5781C34.7266 29.2422 35 28.7109 35 28.125ZM10 10.4688C10 10.2109 10.2109 10 10.4688 10H27.0312C27.2891 10 27.5 10.2109 27.5 10.4688V12.0312C27.5 12.2891 27.2891 12.5 27.0312 12.5H10.4688C10.2109 12.5 10 12.2891 10 12.0312V10.4688ZM10 15.4688C10 15.2109 10.2109 15 10.4688 15H27.0312C27.2891 15 27.5 15.2109 27.5 15.4688V17.0312C27.5 17.2891 27.2891 17.5 27.0312 17.5H10.4688C10.2109 17.5 10 17.2891 10 17.0312V15.4688ZM29.7969 35H7.5C6.11719 35 5 33.8828 5 32.5C5 31.125 6.125 30 7.5 30H29.7969C29.6484 31.3359 29.6484 33.6641 29.7969 35Z" fill="#EF4924"/>
</svg>
