<svg width="18" height="19" viewBox="0 0 18 19" fill="none" xmlns="http://www.w3.org/2000/svg">
<path d="M10.8428 18.4653H11.9717C12.9927 18.4653 13.856 18.4072 14.4204 18.2661C15.4746 18.0005 16.1221 17.2949 16.1221 16.3735C16.1221 16.1328 16.0806 15.917 15.9976 15.7095C16.5786 15.3359 16.9106 14.73 16.9106 14.0659C16.9106 13.7007 16.8359 13.3521 16.6865 13.0864C17.085 12.7461 17.3257 12.1816 17.3257 11.584C17.3257 11.1772 17.2095 10.7539 17.0186 10.48C17.2842 10.1729 17.4336 9.72461 17.4336 9.21826C17.4336 8.08936 16.5537 7.20117 15.4331 7.20117H12.395C12.0547 7.20117 11.8472 7.04346 11.8472 6.77783C11.8472 5.83154 13.2417 3.77295 13.2417 2.1543C13.2417 1.125 12.5195 0.37793 11.5317 0.37793C10.793 0.37793 10.3115 0.768066 9.82178 1.71436C8.80078 3.68994 7.77148 5.08447 5.69629 7.69092H4.12744C2.17676 7.69092 0.566406 9.89893 0.566406 12.6631C0.566406 15.3857 2.33447 17.5938 4.43457 17.5938H7.11572C8.16162 18.1416 9.43164 18.4653 10.8428 18.4653ZM11.98 17.4941L10.8511 17.4858C7.37305 17.4526 5.00732 15.4771 5.00732 12.6465C5.00732 10.8618 5.40576 9.70801 6.52637 8.21387C7.76318 6.56201 9.45654 4.60303 10.6851 2.1626C11.0254 1.49854 11.2163 1.34912 11.5317 1.34912C11.9883 1.34912 12.2705 1.64795 12.2705 2.1543C12.2705 3.50732 10.876 5.52441 10.876 6.77783C10.876 7.63281 11.5815 8.17236 12.5195 8.17236H15.4331C16.0225 8.17236 16.4624 8.62891 16.4624 9.21826C16.4624 9.6084 16.3379 9.88232 16.0474 10.1479C15.9478 10.2393 15.9062 10.3389 15.9062 10.4385C15.9062 10.5132 15.9395 10.5962 16.0059 10.6709C16.2466 10.978 16.3545 11.252 16.3545 11.584C16.3545 11.9907 16.1636 12.356 15.8149 12.5967C15.6572 12.7129 15.5742 12.8374 15.5742 12.9785C15.5742 13.0366 15.5991 13.103 15.6406 13.1777C15.8398 13.543 15.9395 13.7505 15.9395 14.0659C15.9395 14.5225 15.6572 14.8877 15.0928 15.1616C14.9683 15.228 14.8936 15.3276 14.8936 15.4521C14.8936 15.5103 14.9102 15.5684 14.9434 15.6348C15.1177 16.0332 15.1509 16.1494 15.1509 16.3735C15.1509 16.8135 14.8271 17.1621 14.188 17.3198C13.7065 17.4443 12.9263 17.5024 11.98 17.4941ZM4.43457 16.6226C2.89893 16.6226 1.5376 14.8462 1.5376 12.6631C1.5376 10.4302 2.76611 8.66211 4.12744 8.66211H5.05713C4.33496 9.89893 4.03613 11.1025 4.03613 12.6299C4.03613 14.2485 4.67529 15.6348 5.8042 16.6226H4.43457Z" fill="#7A7A7A"/>
</svg>
