<svg width="236" height="40" viewBox="0 0 236 40" fill="none" xmlns="http://www.w3.org/2000/svg">
<path d="M64.9466 17.9272H62.3696L52.6217 5.26611V17.9272H49.8206V0.448181H52.2855L62.1455 13.1092V0.448181H64.9466V17.9272Z" fill="#25375D"/>
<path d="M69.8768 9.18766C69.8768 12.9972 72.5659 15.5742 76.1513 15.5742C79.7367 15.5742 82.4258 12.9972 82.4258 9.18766C82.4258 5.37814 79.7367 2.80111 76.1513 2.80111C72.4538 2.80111 69.8768 5.37814 69.8768 9.18766ZM85.2269 9.18766C85.2269 14.4538 81.4174 18.2633 76.0393 18.2633C70.6611 18.2633 66.8516 14.4538 66.8516 9.18766C66.8516 3.92155 70.6611 0.11203 76.0393 0.11203C81.4174 0.11203 85.2269 3.92155 85.2269 9.18766Z" fill="#25375D"/>
<path d="M89.9327 3.02521V7.95518H94.3024C96.5433 7.95518 97.6638 7.17087 97.6638 5.4902C97.6638 3.80953 96.5433 3.02521 94.3024 3.02521H89.9327ZM94.3024 0.448181C98.336 0.448181 100.577 2.2409 100.577 5.4902C100.577 8.51541 98.336 10.4202 94.7506 10.5322L100.577 17.9272H97.1035L91.5013 10.5322H90.0447V17.9272H87.1315V0.448181H94.3024Z" fill="#25375D"/>
<path d="M116.039 3.13726H110.325V17.9272H107.524V3.13726H101.81V0.448181H116.039V3.13726Z" fill="#25375D"/>
<path d="M120.745 7.84314H130.157V0.448181H133.07V17.9272H130.157V10.4202H120.745V17.9272H117.944V0.448181H120.745V7.84314Z" fill="#25375D"/>
<path d="M145.843 3.13726V15.3501H149.989C154.135 15.3501 156.151 12.7731 156.151 9.29972C156.151 5.71429 154.135 3.2493 149.989 3.2493H145.843V3.13726ZM149.989 0.448181C155.479 0.448181 159.064 3.92157 159.064 9.18768C159.064 14.4538 155.479 17.9272 149.989 17.9272H143.042V0.448181H149.989Z" fill="#25375D"/>
<path d="M164.331 10.8684H170.157L167.244 3.2493L164.331 10.8684ZM175.983 17.9272H172.958L171.277 13.4454H163.322L161.642 17.9272H158.728L165.563 0.448181H169.149L175.983 17.9272Z" fill="#25375D"/>
<path d="M189.989 17.9272H177.44V0.448181H180.241V15.2381H189.989V17.9272Z" fill="#25375D"/>
<path d="M204.442 17.9272H191.893V0.448181H194.695V15.2381H204.442V17.9272Z" fill="#25375D"/>
<path d="M209.149 10.8684H214.975L212.062 3.2493L209.149 10.8684ZM220.801 17.9272H217.776L216.095 13.4454H208.14L206.459 17.9272H203.546L210.269 0.448181H213.854L220.801 17.9272Z" fill="#25375D"/>
<path d="M233.35 4.2577C231.894 3.2493 230.213 2.80112 228.42 2.80112C226.067 2.80112 224.499 3.80952 224.499 5.37815C224.499 6.83473 225.843 7.39496 228.196 7.73109L229.429 7.84314C232.23 8.17927 235.031 9.41176 235.031 12.6611C235.031 16.2465 231.782 18.1513 227.972 18.1513C225.619 18.1513 222.706 17.3669 220.913 15.7983L222.482 13.5574C223.714 14.6779 225.955 15.4622 227.972 15.4622C230.213 15.4622 232.118 14.4538 232.118 12.8852C232.118 11.5406 230.773 10.8683 228.196 10.5322L226.852 10.3081C224.275 9.97199 221.698 8.7395 221.698 5.4902C221.698 2.01681 224.835 0 228.644 0C231.221 0 233.238 0.672269 235.031 1.90476L233.35 4.2577Z" fill="#25375D"/>
<path d="M52.5098 32.2689V36.9748H56.6555C58.7843 36.9748 60.2409 36.5266 60.2409 34.6219C60.2409 32.7171 58.7843 32.2689 56.6555 32.2689H52.5098ZM52.5098 25.098V29.6919H56.3193C58.2241 29.6919 59.9048 29.3557 59.9048 27.3389C59.9048 25.3221 58.2241 25.098 56.3193 25.098H52.5098ZM56.4314 22.409C60.1288 22.409 62.8179 23.6415 62.8179 27.1148C62.8179 28.9076 61.6975 30.3641 60.1288 30.8123C61.8095 31.2605 63.1541 32.8291 63.1541 34.7339C63.1541 38.2073 60.6891 39.6639 56.7675 39.6639H49.7087V22.409H56.4314Z" fill="#25375D"/>
<path d="M68.9803 32.605H74.6946L71.7815 25.2101L68.9803 32.605ZM80.4089 39.6639H77.3837L75.703 35.1821H67.9719L66.2913 39.6639H63.3781L70.1008 22.521H73.6862L80.4089 39.6639Z" fill="#25375D"/>
<path d="M96.6553 39.6639H94.0783L84.5545 27.2269V39.6639H81.7533V22.409H84.2183L93.8542 34.8459V22.409H96.6553V39.6639Z" fill="#25375D"/>
<path d="M103.49 32.2689H101.921V39.6639H99.1203V22.409H101.921V29.6919H103.602L109.989 22.409H113.574L105.843 30.8123L114.134 39.6639H110.325L103.49 32.2689Z" fill="#25375D"/>
<path d="M120.633 29.0196C121.865 28.1233 122.874 27.2269 122.874 26.2185C122.874 25.098 122.09 24.5378 120.857 24.5378C119.625 24.5378 118.84 25.2101 118.84 26.3305C118.952 27.2269 119.288 27.7871 120.633 29.0196ZM123.994 35.8543L120.185 32.2689C119.064 33.1653 118.168 34.1737 118.168 35.2941C118.168 36.6387 119.176 37.535 120.745 37.535C122.202 37.535 123.098 36.9748 123.994 35.8543ZM127.916 39.6639L125.787 37.6471C124.555 38.9916 122.986 40 120.633 40C117.384 40 115.479 38.3193 115.479 35.5182C115.479 33.5014 116.936 31.9328 118.504 30.7003C116.936 29.1317 116.151 28.0112 116.151 26.3305C116.151 23.9776 118.056 22.1849 120.857 22.1849C123.658 22.1849 125.563 23.7535 125.563 26.2185C125.563 28.1233 123.994 29.4678 122.314 30.8123L125.451 33.8375L127.804 30.1401L129.933 31.4846L127.804 34.8459C127.692 35.07 127.468 35.2941 127.356 35.5182L131.613 39.6639H127.916Z" fill="#EF4924"/>
<path d="M143.938 25.098H138.448V39.6639H135.647V25.098H130.045V22.409H143.938V25.098Z" fill="#25375D"/>
<path d="M148.756 25.098V29.916H153.014C155.255 29.916 156.263 29.1317 156.263 27.451C156.263 25.7703 155.143 25.098 153.014 25.098H148.756ZM153.014 22.409C156.936 22.409 159.064 24.2017 159.064 27.3389C159.064 30.2521 156.823 32.1569 153.35 32.2689L158.952 39.4398H155.479L149.989 32.2689H148.756V39.6639H145.955V22.409H153.014Z" fill="#25375D"/>
<path d="M175.647 32.8291C175.647 37.6471 172.398 39.888 168.364 39.888C164.33 39.888 161.081 37.535 161.081 32.8291V22.409H163.882V32.605C163.882 35.8543 165.787 37.1989 168.364 37.1989C171.053 37.1989 172.846 35.8543 172.846 32.605V22.409H175.647V32.8291Z" fill="#25375D"/>
<path d="M189.316 26.2185C187.86 25.3221 186.291 24.7619 184.498 24.7619C182.258 24.7619 180.689 25.7703 180.689 27.339C180.689 28.7955 182.033 29.3558 184.274 29.5798L185.507 29.6919C188.308 30.028 190.997 31.2605 190.997 34.3978C190.997 37.8712 187.86 39.7759 184.162 39.7759C181.809 39.7759 179.008 38.9916 177.216 37.423L178.672 35.1821C179.905 36.3025 182.033 37.0869 184.05 37.0869C186.291 37.0869 188.084 36.0784 188.084 34.5098C188.084 33.1653 186.739 32.493 184.274 32.1569L182.93 31.9328C180.353 31.5967 177.888 30.3642 177.888 27.2269C177.888 23.7535 180.913 21.8488 184.61 21.8488C187.075 21.8488 189.092 22.521 190.773 23.7535L189.316 26.2185Z" fill="#25375D"/>
<path d="M206.235 25.098H200.633V39.6639H197.832V25.098H192.342V22.409H206.235V25.098Z" fill="#25375D"/>
<path d="M2.87389 0.448181L12.7338 10.1961H29.8767V27.3389L39.8487 37.3109V0.448181H2.87389Z" fill="#EF4924"/>
<path d="M10.2688 24.3137L25.619 39.6639H37.4957L0.632988 2.68909V39.6639H10.2688V24.3137Z" fill="#25375D"/>
<path d="M222.146 24.8739L220.017 26.1064C219.345 25.098 218.224 24.4258 216.88 24.4258C214.639 24.4258 213.07 25.9944 213.07 28.3473C213.07 30.8123 214.751 32.2689 216.88 32.2689C218.224 32.2689 219.345 31.7087 220.017 30.5882L222.034 32.0448C220.913 33.6134 219.12 34.6218 216.88 34.6218C213.182 34.6218 210.493 31.9328 210.493 28.3473C210.493 24.6498 213.182 22.0728 216.88 22.0728C219.233 22.1849 221.137 23.1933 222.146 24.8739Z" fill="#25375D"/>
<path d="M225.171 28.4594C225.171 30.8123 226.74 32.381 228.98 32.381C231.221 32.381 232.79 30.8123 232.79 28.4594C232.79 26.1064 231.221 24.5378 228.98 24.5378C226.74 24.5378 225.171 26.1064 225.171 28.4594ZM235.367 28.4594C235.367 32.0448 232.678 34.7339 228.98 34.7339C225.283 34.7339 222.594 32.0448 222.594 28.4594C222.594 24.874 225.283 22.1849 228.98 22.1849C232.79 22.1849 235.367 24.874 235.367 28.4594Z" fill="#25375D"/>
<path d="M211.277 39.6639V37.1989H234.695V39.6639H211.277Z" fill="#EF4924"/>
</svg>
