<svg width="30" height="40" viewBox="0 0 30 40" fill="none" xmlns="http://www.w3.org/2000/svg">
<g clip-path="url(#clip0)">
<path d="M8.53516 13.5351C10.4875 11.5828 10.4875 8.41636 8.53516 6.46401C6.58282 4.51167 3.41641 4.51167 1.46407 6.46401C-0.488277 8.41636 -0.488277 11.5828 1.46407 13.5351C3.41719 15.4882 6.58282 15.4882 8.53516 13.5351ZM28.5352 26.464C26.5828 24.5117 23.4164 24.5117 21.4641 26.464C19.5117 28.4164 19.5117 31.5828 21.4641 33.5351C23.4164 35.4875 26.5828 35.4875 28.5352 33.5351C30.4883 31.5828 30.4883 28.4171 28.5352 26.464ZM28.3836 8.38355L26.6164 6.61636C25.6398 5.6398 24.057 5.6398 23.0813 6.61636L1.61641 28.0812C0.639848 29.0578 0.639848 30.6406 1.61641 31.6164L3.3836 33.3835C4.36016 34.3601 5.94297 34.3601 6.91875 33.3835L28.3836 11.9187C29.3602 10.9429 29.3602 9.36011 28.3836 8.38355Z" fill="#EF4924"/>
</g>
<defs>
<clipPath id="clip0">
<rect width="30" height="40" fill="white"/>
</clipPath>
</defs>
</svg>
