<?xml version="1.0" encoding="utf-8"?>
<!-- Generator: Adobe Illustrator 24.2.3, SVG Export Plug-In . SVG Version: 6.00 Build 0)  -->
<svg version="1.1" id="Layer_1" xmlns="http://www.w3.org/2000/svg" xmlns:xlink="http://www.w3.org/1999/xlink" x="0px" y="0px"
	 viewBox="0 0 792 612" style="enable-background:new 0 0 792 612;" xml:space="preserve">
<style type="text/css">
	.st0{fill:#F04923;stroke:#000000;stroke-miterlimit:10;}
	.st1{fill:#26375D;stroke:#000000;stroke-miterlimit:10;}
	.st2{fill:#BCBEC0;stroke:#000000;stroke-miterlimit:10;}
	.st3{fill:#4D4D4D;stroke:#000000;stroke-miterlimit:10;}
	.st4{fill:#FFFFFF;stroke:#000000;stroke-miterlimit:10;}
	.st5{fill:#26375D;stroke:#26375D;stroke-miterlimit:10;}
	.st6{fill:#FFFFFF;}
	.st7{fill:#D1D3D4;}
</style>
<path class="st0" d="M389.62,339.99c-0.58,0-1.12,0.23-1.58,0.64c-0.47-0.4-1-0.64-1.58-0.64c-1.75,0-3.16,2.12-3.16,4.73
	c0,2.61,1.42,4.73,3.16,4.73c0.58,0,1.12-0.23,1.58-0.64c0.47,0.4,1,0.64,1.58,0.64c1.75,0,3.16-2.12,3.16-4.73
	C392.79,342.11,391.37,339.99,389.62,339.99z"/>
<path class="st0" d="M404.79,339.99c-0.58,0-1.12,0.23-1.58,0.64c-0.47-0.4-1-0.64-1.58-0.64c-1.75,0-3.16,2.12-3.16,4.73
	c0,2.61,1.42,4.73,3.16,4.73c0.58,0,1.12-0.23,1.58-0.64c0.47,0.4,1,0.64,1.58,0.64c1.75,0,3.16-2.12,3.16-4.73
	C407.95,342.11,406.54,339.99,404.79,339.99z"/>
<ellipse transform="matrix(0.1649 -0.9863 0.9863 0.1649 1.3332 635.3524)" class="st1" cx="375.85" cy="316.89" rx="20.24" ry="10.18"/>
<ellipse transform="matrix(0.9836 -0.1805 0.1805 0.9836 -50.3368 80.3513)" class="st1" cx="416.31" cy="316.74" rx="9.16" ry="20.24"/>
<ellipse class="st2" cx="395.28" cy="317.23" rx="19.43" ry="27.7"/>
<path class="st3" d="M418,279.12l1.72-6.59l0-8.18l-6.43,5.07l-2.85,3.77c-4.03-2.02-8.96-3.29-14.32-3.47
	c-5.56-0.19-10.73,0.82-14.97,2.67l-1.59-3.59l-5.11-6.39l-1.85,7.97l0.23,8.23c-1.55,2.07-2.47,4.39-2.55,6.88
	c-0.31,9.19,10.75,17.03,24.71,17.51c13.96,0.48,25.54-6.59,25.85-15.78C420.93,284.32,419.9,281.56,418,279.12z"/>
<polygon class="st0" points="396.18,302.45 392.76,297.63 390.9,291.57 395.77,290.2 400.71,291.24 399.27,297.42 "/>
<g>
	<circle class="st4" cx="385.83" cy="285.7" r="10.91"/>
	<circle class="st4" cx="406.29" cy="285.7" r="10.91"/>
</g>
<circle class="st5" cx="386.26" cy="286.35" r="6.35"/>
<circle class="st5" cx="406.29" cy="286.35" r="6.35"/>
<circle class="st6" cx="386.73" cy="287.66" r="2.25"/>
<circle class="st6" cx="405.83" cy="287.66" r="2.25"/>
<circle class="st7" cx="385.5" cy="315.38" r="3.11"/>
<circle class="st7" cx="401.1" cy="325.73" r="3.11"/>
<circle class="st7" cx="405.95" cy="315.38" r="3.11"/>
<circle class="st7" cx="395.47" cy="315.38" r="3.11"/>
<circle class="st7" cx="389.62" cy="325.73" r="3.11"/>
</svg>
