<svg width="50" height="40" viewBox="0 0 50 40" fill="none" xmlns="http://www.w3.org/2000/svg">
<g clip-path="url(#clip0)">
<path d="M2.49998 17.5H4.99998V32.5H2.49998C2.17156 32.5004 1.8463 32.436 1.5428 32.3105C1.23931 32.185 0.963558 32.0009 0.731333 31.7686C0.499108 31.5364 0.314974 31.2607 0.189477 30.9572C0.0639801 30.6537 -0.000415281 30.3284 -2.10893e-05 30V20C-0.000415281 19.6716 0.0639801 19.3463 0.189477 19.0428C0.314974 18.7393 0.499108 18.4636 0.731333 18.2314C0.963558 17.9991 1.23931 17.815 1.5428 17.6895C1.8463 17.564 2.17156 17.4996 2.49998 17.5ZM42.5 13.75V35C42.4987 36.3257 41.9715 37.5967 41.0341 38.5341C40.0967 39.4715 38.8257 39.9987 37.5 40H12.5C11.1743 39.9987 9.90329 39.4715 8.96589 38.5341C8.02849 37.5967 7.50129 36.3257 7.49998 35V13.75C7.49971 12.9292 7.66119 12.1163 7.97519 11.3579C8.28919 10.5995 8.74955 9.91041 9.32997 9.32999C9.91039 8.74957 10.5995 8.28921 11.3579 7.97521C12.1163 7.66121 12.9291 7.49973 13.75 7.5H22.5V2.5C22.5 1.83696 22.7634 1.20107 23.2322 0.732233C23.7011 0.263392 24.3369 0 25 0C25.663 0 26.2989 0.263392 26.7677 0.732233C27.2366 1.20107 27.5 1.83696 27.5 2.5V7.5H36.25C37.0708 7.49973 37.8837 7.66121 38.6421 7.97521C39.4005 8.28921 40.0896 8.74957 40.67 9.32999C41.2504 9.91041 41.7108 10.5995 42.0248 11.3579C42.3388 12.1163 42.5002 12.9292 42.5 13.75ZM20.625 20C20.625 19.3819 20.4417 18.7777 20.0983 18.2638C19.7549 17.7499 19.2669 17.3494 18.6959 17.1129C18.1248 16.8764 17.4965 16.8145 16.8903 16.935C16.2841 17.0556 15.7273 17.3533 15.2903 17.7903C14.8532 18.2273 14.5556 18.7842 14.435 19.3903C14.3144 19.9965 14.3763 20.6249 14.6129 21.1959C14.8494 21.7669 15.2499 22.255 15.7638 22.5983C16.2777 22.9417 16.8819 23.125 17.5 23.125C17.9104 23.125 18.3167 23.0442 18.6959 22.8872C19.0751 22.7302 19.4196 22.5 19.7098 22.2098C19.9999 21.9196 20.2301 21.5751 20.3872 21.1959C20.5442 20.8168 20.625 20.4104 20.625 20ZM20 30H15V32.5H20V30ZM27.5 30H22.5V32.5H27.5V30ZM35.625 20C35.625 19.3819 35.4417 18.7777 35.0983 18.2638C34.7549 17.7499 34.2669 17.3494 33.6959 17.1129C33.1249 16.8764 32.4965 16.8145 31.8903 16.935C31.2841 17.0556 30.7273 17.3533 30.2903 17.7903C29.8532 18.2273 29.5556 18.7842 29.435 19.3903C29.3144 19.9965 29.3763 20.6249 29.6129 21.1959C29.8494 21.7669 30.2499 22.255 30.7638 22.5983C31.2777 22.9417 31.8819 23.125 32.5 23.125C32.9104 23.125 33.3167 23.0442 33.6959 22.8872C34.0751 22.7302 34.4196 22.5 34.7098 22.2098C35 21.9196 35.2301 21.5751 35.3872 21.1959C35.5442 20.8168 35.625 20.4104 35.625 20ZM35 30H30V32.5H35V30ZM50 20V30C50.0004 30.3284 49.936 30.6537 49.8105 30.9572C49.685 31.2607 49.5009 31.5364 49.2686 31.7686C49.0364 32.0009 48.7606 32.185 48.4572 32.3105C48.1537 32.436 47.8284 32.5004 47.5 32.5H45V17.5H47.5C47.8284 17.4996 48.1537 17.564 48.4572 17.6895C48.7606 17.815 49.0364 17.9991 49.2686 18.2314C49.5009 18.4636 49.685 18.7393 49.8105 19.0428C49.936 19.3463 50.0004 19.6716 50 20Z" fill="#EF4924"/>
</g>
<defs>
<clipPath id="clip0">
<rect width="50" height="40" fill="white"/>
</clipPath>
</defs>
</svg>
